<svg width="64" height="64" viewBox="0 0 64 64" fill="none" xmlns="http://www.w3.org/2000/svg">
  <circle cx="32" cy="32" r="24" stroke="currentColor" stroke-width="2" opacity="0.22"/>
  <circle cx="32" cy="32" r="20" stroke="currentColor" stroke-width="2" opacity="0.38"/>
  <path d="M32 10L48 16V29C48 38 41.8 45.6 32 50C22.2 45.6 16 38 16 29V16L32 10Z" stroke="currentColor" stroke-width="3" stroke-linejoin="round"/>
  <path d="M32 21L35 27L41.5 28L36.8 32.6L38 39L32 35.8L26 39L27.2 32.6L22.5 28L29 27L32 21Z" stroke="currentColor" stroke-width="2.4" stroke-linejoin="round"/>
  <path d="M32 4V1" stroke="currentColor" stroke-width="2.2" stroke-linecap="round"/>
  <path d="M32 63V60" stroke="currentColor" stroke-width="2.2" stroke-linecap="round"/>
  <path d="M4 32H1" stroke="currentColor" stroke-width="2.2" stroke-linecap="round"/>
  <path d="M63 32H60" stroke="currentColor" stroke-width="2.2" stroke-linecap="round"/>
  <path d="M11 11L8.7 8.7" stroke="currentColor" stroke-width="2.2" stroke-linecap="round"/>
  <path d="M53 53L55.3 55.3" stroke="currentColor" stroke-width="2.2" stroke-linecap="round"/>
</svg>
